<svg width="16" height="8" viewBox="0 0 16 8" fill="none" xmlns="http://www.w3.org/2000/svg">
<path d="M0.195333 3.52735L3.38067 0.342011C3.4739 0.248805 3.59268 0.185334 3.72198 0.159622C3.85128 0.133911 3.9853 0.147113 4.1071 0.197559C4.2289 0.248006 4.33301 0.333433 4.40627 0.443039C4.47952 0.552646 4.51864 0.681511 4.51867 0.813345V2.83201C4.51867 2.87621 4.53623 2.91861 4.56748 2.94986C4.59874 2.98112 4.64113 2.99868 4.68533 2.99868H15C15.2652 2.99868 15.5196 3.10403 15.7071 3.29157C15.8946 3.47911 16 3.73346 16 3.99868C16 4.2639 15.8946 4.51825 15.7071 4.70579C15.5196 4.89332 15.2652 4.99868 15 4.99868H4.68533C4.64113 4.99868 4.59874 5.01624 4.56748 5.04749C4.53623 5.07875 4.51867 5.12114 4.51867 5.16535V7.18401C4.51864 7.31584 4.47952 7.44471 4.40627 7.55432C4.33301 7.66392 4.2289 7.74935 4.1071 7.7998C3.9853 7.85024 3.85128 7.86345 3.72198 7.83773C3.59268 7.81202 3.4739 7.74855 3.38067 7.65534L0.195333 4.47001C0.0703516 4.34499 0.000142097 4.17545 0.000142097 3.99868C0.000142097 3.8219 0.0703516 3.65236 0.195333 3.52735Z" fill="white"/>
</svg>
