<svg width="16" height="8" viewBox="0 0 16 8" fill="none" xmlns="http://www.w3.org/2000/svg">
<path d="M15.8047 3.52735L12.6193 0.342011C12.5261 0.248805 12.4073 0.185334 12.278 0.159622C12.1487 0.133911 12.0147 0.147113 11.8929 0.197559C11.7711 0.248006 11.667 0.333433 11.5937 0.443039C11.5205 0.552646 11.4814 0.681511 11.4813 0.813345V2.83201C11.4813 2.87621 11.4638 2.91861 11.4325 2.94986C11.4013 2.98112 11.3589 2.99868 11.3147 2.99868H1C0.734784 2.99868 0.48043 3.10403 0.292893 3.29157C0.105357 3.47911 0 3.73346 0 3.99868C0 4.26389 0.105357 4.51825 0.292893 4.70579C0.48043 4.89332 0.734784 4.99868 1 4.99868H11.3147C11.3589 4.99868 11.4013 5.01624 11.4325 5.04749C11.4638 5.07875 11.4813 5.12114 11.4813 5.16535V7.18401C11.4814 7.31584 11.5205 7.44471 11.5937 7.55432C11.667 7.66392 11.7711 7.74935 11.8929 7.7998C12.0147 7.85024 12.1487 7.86345 12.278 7.83773C12.4073 7.81202 12.5261 7.74855 12.6193 7.65534L15.8047 4.47001C15.9296 4.34499 15.9999 4.17545 15.9999 3.99868C15.9999 3.8219 15.9296 3.65236 15.8047 3.52735Z" fill="white"/>
</svg>
